# xmcd
#
# Track frame offsets:
#	150
#	27025
#	52210
#	77230
#	94438
#	122620
#	144162
#	168964
#	193406
#	222382
#	248348
#
# Disc length: 3660 seconds
#
# Revision: 1
# Processed by: cddbd v1.5.1PL2 Copyright (c) Steve Scherf et al.
# Submitted via: audiograbber 1.83.01
#
DISCID=980e4a0b
DTITLE=GALIJA - Dobro jutro, to sam ja
DYEAR=2005
DGENRE=Pop
TTITLE0=Cujem te lepo kako dises
TTITLE1=Ona je moja
TTITLE2=Ti mozes sve
TTITLE3=To nisi ti
TTITLE4=Mozda sam lud
TTITLE5=Promenilo se sve
TTITLE6=Kazi mi
TTITLE7=U tajnama je stvar
TTITLE8=Vera
TTITLE9=Tvoj heroj ostace mlad
TTITLE10=Prava rec je dovoljna
EXTD=
EXTT0=
EXTT1=
EXTT2=
EXTT3=
EXTT4=
EXTT5=
EXTT6=
EXTT7=
EXTT8=
EXTT9=
EXTT10=
PLAYORDER=
